# xmcd
#
# Track frame offsets:
#	150
#	4777
#	27370
#	59348
#	74668
#	93880
#	97668
#	120211
#	141225
#	165586
#	190827
#	212108
#	240049
#	262669
#	286144
#	299280
#	310498
#	329720
#
# Disc length: 4622 seconds
#
# Revision: 0
# Processed by: cddbd v1.5.2PL0 Copyright (c) Steve Scherf et al.
# Submitted via: EasyCDDAExtractor 2011.0.0.0
#
DISCID=f6120c12
DTITLE=Poetas de Cristo - Corre Enquanto é Tempo
DYEAR=1900
DGENRE=Rap Gospel
TTITLE0=Intro João 14-6
TTITLE1=João 14-6
TTITLE2=Pra Que Pedir Pra Não Viver
TTITLE3=Saia Deste Mundo
TTITLE4=O Verbo é Crente
TTITLE5=Interlúdio - Arrebatamento
TTITLE6=Arrebatamento
TTITLE7=Coisa de Louco
TTITLE8=Rua de Terra
TTITLE9=Em Nome de Jesus
TTITLE10=Pula Pra Jesus
TTITLE11=Saqueando o Inferno
TTITLE12=Corre Enquanto é Tempo
TTITLE13=Rajada de Versículos
TTITLE14=Sem Jesus Não Dá
TTITLE15=Scratch
TTITLE16=Testemunho
TTITLE17=Corre Enquanto é Tempo (Remix)
EXTD=
EXTT0=
EXTT1=
EXTT2=
EXTT3=
EXTT4=
EXTT5=
EXTT6=
EXTT7=
EXTT8=
EXTT9=
EXTT10=
EXTT11=
EXTT12=
EXTT13=
EXTT14=
EXTT15=
EXTT16=
EXTT17=
PLAYORDER=
